<mxfile host="Electron" modified="2023-08-06T12:44:17.353Z" agent="Mozilla/5.0 (Windows NT 10.0; Win64; x64) AppleWebKit/537.36 (KHTML, like Gecko) draw.io/21.6.5 Chrome/114.0.5735.243 Electron/25.3.1 Safari/537.36" etag="5mqzhIBwKR6sfOPeRqZX" version="21.6.5" type="device">
  <diagram name="Page-1" id="EfOD88xJCEG1TyOm0YSO">
    <mxGraphModel dx="880" dy="511" grid="1" gridSize="10" guides="1" tooltips="1" connect="1" arrows="1" fold="1" page="1" pageScale="1" pageWidth="1169" pageHeight="827" math="0" shadow="0">
      <root>
        <mxCell id="0" />
        <mxCell id="1" parent="0" />
        <mxCell id="zpj6DPag-71tL-bmm5ng-5" style="edgeStyle=orthogonalEdgeStyle;rounded=0;orthogonalLoop=1;jettySize=auto;html=1;exitX=1;exitY=0.5;exitDx=0;exitDy=0;entryX=0;entryY=0.5;entryDx=0;entryDy=0;endArrow=none;endFill=0;" edge="1" parent="1" source="zpj6DPag-71tL-bmm5ng-1" target="zpj6DPag-71tL-bmm5ng-4">
          <mxGeometry relative="1" as="geometry" />
        </mxCell>
        <mxCell id="zpj6DPag-71tL-bmm5ng-10" value="+a" style="edgeLabel;html=1;align=center;verticalAlign=middle;resizable=0;points=[];" vertex="1" connectable="0" parent="zpj6DPag-71tL-bmm5ng-5">
          <mxGeometry x="-0.83" y="-1" relative="1" as="geometry">
            <mxPoint y="-12" as="offset" />
          </mxGeometry>
        </mxCell>
        <mxCell id="zpj6DPag-71tL-bmm5ng-11" value="0..1" style="edgeLabel;html=1;align=center;verticalAlign=middle;resizable=0;points=[];" vertex="1" connectable="0" parent="zpj6DPag-71tL-bmm5ng-5">
          <mxGeometry x="-0.83" relative="1" as="geometry">
            <mxPoint y="10" as="offset" />
          </mxGeometry>
        </mxCell>
        <mxCell id="zpj6DPag-71tL-bmm5ng-12" value="+b {ordered}" style="edgeLabel;html=1;align=center;verticalAlign=middle;resizable=0;points=[];" vertex="1" connectable="0" parent="zpj6DPag-71tL-bmm5ng-5">
          <mxGeometry x="0.6" y="1" relative="1" as="geometry">
            <mxPoint y="-9" as="offset" />
          </mxGeometry>
        </mxCell>
        <mxCell id="zpj6DPag-71tL-bmm5ng-13" value="*" style="edgeLabel;html=1;align=center;verticalAlign=middle;resizable=0;points=[];" vertex="1" connectable="0" parent="zpj6DPag-71tL-bmm5ng-5">
          <mxGeometry x="0.75" y="-2" relative="1" as="geometry">
            <mxPoint x="9" y="10" as="offset" />
          </mxGeometry>
        </mxCell>
        <mxCell id="zpj6DPag-71tL-bmm5ng-1" value="A" style="whiteSpace=wrap;html=1;fontStyle=1" vertex="1" parent="1">
          <mxGeometry x="40" y="40" width="80" height="40" as="geometry" />
        </mxCell>
        <mxCell id="zpj6DPag-71tL-bmm5ng-6" style="edgeStyle=orthogonalEdgeStyle;rounded=0;orthogonalLoop=1;jettySize=auto;html=1;exitX=0.5;exitY=0;exitDx=0;exitDy=0;entryX=0.5;entryY=1;entryDx=0;entryDy=0;endArrow=block;endFill=0;endSize=12;" edge="1" parent="1" source="zpj6DPag-71tL-bmm5ng-2" target="zpj6DPag-71tL-bmm5ng-1">
          <mxGeometry relative="1" as="geometry" />
        </mxCell>
        <mxCell id="zpj6DPag-71tL-bmm5ng-7" style="edgeStyle=orthogonalEdgeStyle;rounded=0;orthogonalLoop=1;jettySize=auto;html=1;exitX=1;exitY=0.5;exitDx=0;exitDy=0;endSize=12;endArrow=openThin;endFill=0;" edge="1" parent="1" source="zpj6DPag-71tL-bmm5ng-2" target="zpj6DPag-71tL-bmm5ng-3">
          <mxGeometry relative="1" as="geometry" />
        </mxCell>
        <mxCell id="zpj6DPag-71tL-bmm5ng-14" value="+d {ordered, subsets b}" style="edgeLabel;html=1;align=right;verticalAlign=middle;resizable=0;points=[];" vertex="1" connectable="0" parent="zpj6DPag-71tL-bmm5ng-7">
          <mxGeometry x="0.74" relative="1" as="geometry">
            <mxPoint x="14" y="-13" as="offset" />
          </mxGeometry>
        </mxCell>
        <mxCell id="zpj6DPag-71tL-bmm5ng-15" value="0.1" style="edgeLabel;html=1;align=right;verticalAlign=middle;resizable=0;points=[];" vertex="1" connectable="0" parent="zpj6DPag-71tL-bmm5ng-7">
          <mxGeometry x="0.71" y="-1" relative="1" as="geometry">
            <mxPoint x="15" y="10" as="offset" />
          </mxGeometry>
        </mxCell>
        <mxCell id="zpj6DPag-71tL-bmm5ng-2" value="C" style="whiteSpace=wrap;html=1;fontStyle=1" vertex="1" parent="1">
          <mxGeometry x="40" y="160" width="80" height="40" as="geometry" />
        </mxCell>
        <mxCell id="zpj6DPag-71tL-bmm5ng-8" style="edgeStyle=orthogonalEdgeStyle;rounded=0;orthogonalLoop=1;jettySize=auto;html=1;exitX=0.5;exitY=0;exitDx=0;exitDy=0;endArrow=block;endFill=0;endSize=12;" edge="1" parent="1" source="zpj6DPag-71tL-bmm5ng-3" target="zpj6DPag-71tL-bmm5ng-4">
          <mxGeometry relative="1" as="geometry" />
        </mxCell>
        <mxCell id="zpj6DPag-71tL-bmm5ng-3" value="D" style="whiteSpace=wrap;html=1;fontStyle=1" vertex="1" parent="1">
          <mxGeometry x="320" y="160" width="80" height="40" as="geometry" />
        </mxCell>
        <mxCell id="zpj6DPag-71tL-bmm5ng-4" value="B" style="whiteSpace=wrap;html=1;fontStyle=1" vertex="1" parent="1">
          <mxGeometry x="320" y="40" width="80" height="40" as="geometry" />
        </mxCell>
        <mxCell id="zpj6DPag-71tL-bmm5ng-9" value="&lt;b&gt;Figure 11.28 Association ends with various adornments&lt;/b&gt;" style="text;html=1;align=left;verticalAlign=middle;resizable=0;points=[];autosize=1;strokeColor=none;fillColor=none;" vertex="1" parent="1">
          <mxGeometry x="40" y="220" width="340" height="30" as="geometry" />
        </mxCell>
      </root>
    </mxGraphModel>
  </diagram>
</mxfile>
